<svg width="309" height="325" fill="none" xmlns="http://www.w3.org/2000/svg"><circle cx="154.5" cy="154.5" r="154.5" fill="#FFD465"/><path fill-rule="evenodd" clip-rule="evenodd" d="M235.767 214.024c-.794-2.314.365-4.622 1.008-6.861 2.284-7.763 4.778-15.527 8.306-22.767 1.337-2.422-.862-5.393-3.41-4.71-4.362.648-8.859.132-13.229-.154-1.598-4.39-5.863-6.211-9.219-8.739-3.809-2.524-7.514-5.423-11.476-7.636-.22-2.091-2.608-2.61-4.068-1.114-4.011-2.649-8.821-2.157-13.12-3.893-3.267-5.606-3.512-11.502-4.377-16.91-.377-2.358.024-4.633-1.493-6.735-5.097-7.612-25.237-10.912-32.662-6.401-3.997-2.647-4.094 2.146-4.728 5.105-.706 1.48-1.088 3.156-.97 4.923-4.293 9.521-14.116 13.826-22.912 17.313-1.104-1.128-2.681-.985-3.731-.052-7.625 1.76-15.025 4.854-21.413 9.684-7.258 2.254-12.37 8.522-16.066 15.242-.407.709-.503 1.431-.384 2.095-11.366 17.69-16.79 38.868-17.553 60.258-7.309 4.658 3.475 46.499 5.985 55.186a.027.027 0 00.007-.004c1.629 3.062 3.478 11.797 7.553 11.121 2.796 3.357 7.252 2.697 11.046 2.955-.618 2.516-.315 5.396.42 7.883.87 2.96 5.14 3.061 5.744-.167 37.781 7.794 76.546 1.575 114.752 2.745 11.046.083 22.092.446 33.112 1.282 1.552.117 3.125-1.566 3.019-3.207-2.369-26.764-4.594-61.972-7.244-88.474-.628-6.044-1.125-12.154-2.897-17.968z" fill="#fff"/><path fill-rule="evenodd" clip-rule="evenodd" d="M147.922 129.755c.108-.313.55-.272.558.081.174 7.525-1.59 16.721-7.262 21.804-2.911 2.609-6.76 3.803-10.294 5.176l-.399.156-6.245 2.47c-1.656.655-3.443 1.663-4.906.737 1.184 3.117 2.178 6.32 3.62 9.324 1.794 3.74 3.964 7.162 6.62 10.274 10.522 12.328 27.173 16.089 42.116 12.477 7.695-1.861 15.182-5.386 20.432-11.816 3.99-4.888 6.282-11.447 6.822-17.918a1.229 1.229 0 01-.493-.014c-1.891-.438-3.8-1.514-5.463-2.569l-.161-.102c-1.6-1.023-3.269-2.196-4.418-3.785-1.141-1.579-2.338-6.729-2.338-6.729-.326-1.935-.632-5.791-.58-7.747.005-.185.776-.294.859-.102.713 1.661.943 5.31 1.493 7.039l.111.345c.587 1.805 1.091 4.003 2.309 5.462 2.287 2.74 5.737 3.9 8.816 5.274.221-3.097 4.88-3.024 4.821.206-.003.175-.011.349-.016.524.367.214.72.459 1.051.696l.322.232c1.22.881 2.449 1.719 3.748 2.466 2.514 1.447 5.176 2.594 7.753 3.908a39.2 39.2 0 017.32 4.808 38.458 38.458 0 013.066 2.845l.264.276c.925.979 2.13 2.073 2.657 3.359.116.283.698.943 1.014.965 4.895.341 9.78.822 14.644 1.543 1.26.187 1.758.876 1.292 1.991-1.6 3.83-7.862 19.126-9.528 23.231.195 3.016-.068 6.566.107 9.582.257 4.402.593 8.803.995 13.193 1.44 15.702 3.623 31.328 5.596 46.962.987 7.825 1.887 15.661 2.776 23.498a303.874 303.874 0 011.453 16.879l.084 1.471c.116 1.852.383 3.621-.696 5.211-.49.721-1.607 1.127-2.251.308-.809-1.03-1.109-1.799-1.187-3.152-.059-1.036-.073-2.076-.117-3.112a329.637 329.637 0 00-.359-6.738 664.928 664.928 0 00-.977-13.452c-1.308-15.707-3.794-31.295-5.448-46.964a361.804 361.804 0 01-1.739-23.755 243.44 243.44 0 01-.177-11.902c.014-1.483.08-2.959.176-4.432a447.227 447.227 0 01-7.807 17.737l-.645 1.383c-1.726 3.692-3.499 7.397-5.573 10.878l-.356.593c-.841 1.414-1.989 3.642-3.521 4.089-1.068.31-2.372.092-3.466.069-1.087-.022-2.174-.027-3.259-.073a15.056 15.056 0 01-3.556-.559 3.847 3.847 0 01-.549-.194c-1.185 2.06-3.199 3.629-5.259 4.543-1.649.732-3.378 1.234-5.109 1.698l-.612.163c-1.856.491-3.98.724-5.027 2.628l-.243.441c-.778 1.404-1.525 2.637-2.813 3.644-1.387 1.084-3.03 1.766-4.667 2.296-1.675.543-3.39.959-5.092 1.404l-.464.123c-1.123.298-2.256.572-3.373.897-.476.138-.961.281-1.428.452-.547.199-.945.511-1.377.85-.388 1.44-2.046 2.221-3.41 2.121-.716-.053-1.359-.311-1.944-.689-1.02.922-2.143 1.748-3.184 2.603a463.266 463.266 0 01-13.562 10.729 353.747 353.747 0 01-16.768 11.969 438.495 438.495 0 01-7.176 4.745l.258.101.51.205c1.208.479 2.553 1.252 2.787 2.748.185 1.186-.439 2.004-1.542 2.148-1.311.172-2.331-.811-3.147-1.75-.36-.414-.763-.799-1.109-1.225a2.743 2.743 0 01-.344-.585 150.836 150.836 0 01-7.232 4.276l-.612.335c-6.063 3.292-11.964 6.898-18.078 10.096-1.595.834-3.54 1.737-5.567 2.353.538 2.213.53 4.644.544 6.89.013 2.19-3.264 2.179-3.195 0l.033-1.052c.06-1.77.157-3.606.553-5.328-5.973 1.052-11.939-1.234-13.05-1.92-1.225-.757-2.338-1.969-3.264-3.092-1.982-2.406-3.358-5.289-4.578-8.19-2.614-6.211-4.466-12.851-5.82-19.491-4.991-24.483-2.844-50.686 5.262-74.154a145.523 145.523 0 017.156-17.125l.34-.684c2.734-5.465 5.773-10.91 9.633-15.561 4.02-4.844 8.98-8.612 14.38-11.536 2.635-1.428 5.347-2.664 8.118-3.761.445-.176.894-.334 1.343-.484 2.888-1.955 6.393-3.826 9.9-3.752a.82.82 0 01.575.245c.169.032.338.07.507.122.374.115.768.55.715.996l-.018.149c-.01.073-.023.143-.044.211.125.02.248.052.369.095 3.355-1.005 6.655-2.544 9.929-3.785l.746-.279c2.742-1.021 5.555-2.021 7.804-4.04 2.237-2.008 3.92-4.61 5.136-7.423 1.499-3.465 2.17-7.219 3.401-10.777zm67.167 182.766c.664-.524 1.449.085 1.698.734.816 2.131.413 5.443-.737 7.328-1.192 1.952-4.045 1.181-4.114-1.184-.072-2.466 1.278-5.396 3.153-6.878zm6.861-58.851c.06-.277.465-.274.526 0 .553 2.501.54 5.194.702 7.758l.019.285c.195 2.827.358 5.663.475 8.495a1195.232 1195.232 0 001.3 24.998 14.538 14.538 0 011.689-.856c.872-.374 1.721-.417 2.658-.407 1.141.012 2 1.078 1.849 2.265-.164 1.293-1.236 1.847-2.35 1.662-1.232-.205-2.471-.522-3.715-.654.138 2.135.281 4.268.433 6.401.202 2.823.464 5.643.649 8.467.017.27.036.539.056.81.742-.41 1.53-.62 2.424-.878l.232-.069c1.297-.396 2.685-.942 3.885-.017.807.623.968 1.648.3 2.469-1.014 1.246-2.514 1.004-3.914.941l-.753-.029c-.71-.03-1.365-.078-2.021-.269.121 1.84.184 3.687-.028 5.5-.115.98-1.33 1.238-1.652.238-.84-2.613-1.013-5.43-1.321-8.167-.287-2.556-.461-5.13-.65-7.697l-.056-.77a545.363 545.363 0 01-1.009-16.958 511.355 511.355 0 01-.455-16.98c-.027-2.572.014-5.153.108-7.724l.03-.771c.11-2.645.033-5.452.589-8.043zm-111.017 59.268c.033-.361.305-.81.711-.754.373.051.759.027 1.128.092.488.086.881.392 1.334.585.738.313 1.542.475 2.298.731 1.42.481 2.194 2.067 1.606 3.549-.619 1.558-2.172 1.911-3.514 1.258-1.058-.515-1.847-1.339-2.558-2.292l-.202-.272c-.307-.409-.655-.866-.783-1.362-.125-.483-.064-1.043-.02-1.535zm68.971-7.323c1.768-.264 3.278.377 4.914.982l.133.049c1.665.611 4.095 1.033 4.949 2.843.514 1.091.114 2.54-1.097 2.863-1.919.511-3.64-.978-5.227-1.981l-.083-.052c-1.531-.953-3.112-1.753-4.09-3.396-.261-.439-.035-1.228.501-1.308zm-61.725-149.307a65 65 0 01-2.124.46c-2.692 1.532-5.305 3.122-8.084 4.487-2.949 1.448-5.887 2.944-8.688 4.696-5.66 3.539-10.324 8.141-14.179 13.783-6.659 9.744-11.612 20.981-15.156 32.383a142.75 142.75 0 00-2.447 8.879c1.275-1.252 2.784-2.021 4.476-2.681.718-.279 1.61.194 1.974.853.163.296.256.589.239.937-.038.766-.508 1.637-1.284 1.789-1.808.354-3.566 1.043-5.31 1.649a.773.773 0 01-.672-.051 140.354 140.354 0 00-3.197 23.721 134.21 134.21 0 00.581 20.343c.543-.258 1.073-.501 1.668-.648a25.77 25.77 0 002.282-.684c2.172-.756 3.162 3.049.943 3.629-.826.216-1.657.396-2.499.527-.733.114-1.382.064-2.073-.056.528 4.216 1.25 8.401 2.169 12.526l.203.903c1.193 5.269 2.585 10.587 4.597 15.567.987 2.442 2.294 4.762 3.908 6.799.793 1.001 1.672 1.86 2.632 2.673.799.677 3.514 2.146 6.73 2.146 3.216 0 4.087-.323 5.71-.916 3.208-1.173 6.255-3.045 9.264-4.713l.311-.171a359.938 359.938 0 003.979-2.221c-.167-1.431.125-2.633.827-3.955.759-1.43 2.641-.718 2.78.745l.005.056c.021.329.073.665.138 1 8.84-5.141 17.493-10.643 26.008-16.376a505.57 505.57 0 0016.259-11.411 364.016 364.016 0 007.947-5.981 397.583 397.583 0 004.104-3.218c.568-.451 1.124-.924 1.692-1.377a29.322 29.322 0 01-.403-.548c-2.123-2.951-3.5-6.468-4.186-10.097-.414-2.189-.614-4.462-.675-6.694l-.027-.971c-.042-1.636-.053-3.347.231-4.932-.386.226-.781.447-1.174.683a1217.42 1217.42 0 01-4.24 2.54c-2.833 1.687-5.675 3.355-8.553 4.956-5.141 2.86-10.332 5.58-15.664 8.018l-2.594 1.187c-4.502 2.057-9.041 4.076-13.723 5.604-2.64.862-5.3 1.599-7.979 2.257l1.084 1.347c.734.913.747 2.224-.192 2.993-.922.756-2.16.441-2.775-.563l-1.12-1.83a3.39 3.39 0 01-.453-1.143c-1.234.274-2.47.537-3.71.791l-2.346.476c-3.348.686-6.594 2.044-9.586 3.783-1.04.604-1.33-.57-.228-1.388 3.223-2.392 6.982-3.746 10.862-4.882l.19-.056c1.423-.414 2.844-.845 4.261-1.292a6.735 6.735 0 01-.228-1.905c.04-1.526.167-3.058.244-4.583.16-3.201.364-6.391.604-9.586.092-1.231.195-2.465.313-3.698-.76-.433-1.416-1.007-2.264-1.29l-.143-.044c-.906-.26-.6-1.5.205-1.606a6.12 6.12 0 012.174.112c.112.026.217.055.318.087.132-1.142.278-2.281.445-3.414.44-2.993.752-6.147 1.668-9.023.068-.213.366-.289.476-.066 1.334 2.693 1.38 5.997 1.53 8.997l.019.358c.177 3.272.187 6.576.13 9.853a401.693 401.693 0 01-.31 10.119c-.057 1.358-.055 2.768-.273 4.067 7.935-2.739 15.73-6.017 23.201-9.899a440.53 440.53 0 0015.66-8.541c2.588-1.48 5.189-2.937 7.774-4.422.906-.521 1.811-1.044 2.716-1.567l1.356-.785c1.27-.736 2.33-1.468 3.809-1.52.441-.015.836.204 1.117.536.795-.599 1.713-.966 2.677-.957a194.336 194.336 0 014.457-6.305l1.132-1.529c1.959-2.637 4.034-5.315 6.532-7.323 1.115-.895 2.341-1.567 3.62-2.123a1.89 1.89 0 01-.858-.493c-1.222-1.203-1.39-3.437-1.638-5.115-.257-1.74-.158-3.297.096-5.032.099-.674 1.151-.814 1.407-.195.541 1.305 1.114 2.556 1.606 3.876l.145.399c.529 1.486 1.654 3.049 1.58 4.661-.021.442-.16.827-.375 1.137 1.073-.379 2.162-.716 3.234-1.068 3.375-1.107 6.762-2.183 10.202-3.042a76.023 76.023 0 012.759-.636c.484-2.44 1.19-4.835 2.021-7.186-.787-.429-1.297-1.147-1.975-1.786-.635-.598-1.071-1.326-1.612-2.013-.493-.625-.216-1.753.67-1.717l.251.011c.917.045 1.806.146 2.638.601l.296.162a9.86 9.86 0 011.248.785c.519-1.266 1.057-2.52 1.602-3.761l.707-1.605c1.832-4.177 3.659-8.514 5.959-12.403 1.023-1.729 2.384-2.809 4.337-2.976 2.012-.172 4.103.05 6.118.126 2.335.089 4.669.194 7.002.324-.598-.665-1.144-1.405-1.744-2.043a36.928 36.928 0 00-3.157-2.989c-2.192-1.835-4.601-3.347-7.103-4.649-2.503-1.303-5.079-2.438-7.429-4.047-1.487-1.018-2.816-2.299-4.028-3.686-.763 8.743-4.739 16.865-10.712 22.967-6.204 6.337-14.777 9.819-23.164 11.3-8.554 1.511-17.482.957-25.666-2.2a44.412 44.412 0 01-11.875-6.871 3.377 3.377 0 01-.181.74 5.046 5.046 0 01-.456.865l-.314.488c-.199.307-.401.612-.626.897-.546.69-1.319.992-2.151.988-1.594-.005-2.801-1.665-2.372-3.306.269-1.031.846-1.652 1.747-2.056.284-.127.574-.234.866-.34l.219-.078c.295-.108.587-.21.891-.269a41.243 41.243 0 01-4.715-5.222c-4.453-5.894-8.845-14.148-7.356-21.976.025-.134.139-.219.262-.24.086-.55.362-1.081.739-1.438a6.055 6.055 0 00-.767-.163zm46.243 135.332c.882-.521 1.793.716 1.076 1.481l-1.07 1.136c-.993 1.06-1.96 2.131-2.81 3.339l-.206.295c-1.147 1.658-2.371 3.578-4.251 4.198-2.274.749-4.46-2.192-3.143-4.341 1.151-1.878 3.366-2.586 5.276-3.363 1.807-.734 3.439-1.748 5.128-2.745zm-73.367-8.666c.518-.72 1.869-.341 1.515.679-1.15 3.309-1.618 7.822-4.522 10.021-.937.709-2.409.383-3.18-.435-.876-.931-.912-2.241-.41-3.377.61-1.385 2.115-2.389 3.168-3.443l.095-.097c1.134-1.169 2.36-1.995 3.334-3.348zm121.365 3.809c.925-.423 3.336-1.246 4.05-.272a.544.544 0 01.085.118c.175.323.201.779 0 1.1-.832 1.328-1.699 2.32-2.883 3.265l-.133.105c-1.288 1.006-2.499 2.187-4.068 2.641-2.176.628-3.696-2.264-2.168-3.954 1.231-1.36 3.111-2.067 4.742-2.826l.375-.177zm-87.384-18.911c-.364-.699.379-1.556 1.053-1.119 1.921 1.247 4.159 2.183 6.317 2.855.874.272 1.662 1.212 1.597 2.226l-.01.153c-.026.359-.073.715-.287 1.012-.752 1.044-1.827 1.446-2.975.828-2.559-1.376-4.311-3.298-5.695-5.955zm56.156-2.116c-.047-.293.156-.52.437-.463 1.624.326 3.123 1.159 4.518 2.116.747.514 1.469 1.077 2.215 1.596.921.64 1.266 1.169 1.403 2.344.09.775-.592 1.483-1.218 1.697-1.704.584-3.656-1.331-4.811-2.575l-.052-.056c-1.209-1.308-2.205-2.855-2.492-4.659zm48.768-2.032c-.37-1.061.905-1.941 1.739-1.42.786.491 1.638.898 2.379 1.46.681.517 1.302 1.13 1.955 1.69l.322.271c1.198 1.022 3.175 3.55 1.462 5.017-1.629 1.396-3.79-.387-4.884-1.69l-.076-.092c-.629-.772-1.405-1.611-1.862-2.512-.43-.849-.721-1.823-1.035-2.724zm-16.071-82.151c-2.041.421-2.873 3.096-3.733 4.839-2.028 4.115-3.894 8.306-5.767 12.501-.577 1.291-1.139 2.591-1.705 3.889a2.039 2.039 0 01-.132.301c-1.161 2.654-2.356 5.29-3.753 7.809a59.995 59.995 0 013.854-.641c-.065-1.29.767-3.016 1.178-4.102l.035-.092c.513-1.391 1.051-3.584 2.371-4.306.44-.24.911.061.945.576.1 1.531-1.311 3.284-2.001 4.584-.417.787-.823 1.577-1.219 2.375-.149.299-.273.593-.425.856a51.386 51.386 0 011.999-.194l.436-.031c2.476-.174 5.106-.223 7.344 1.073 2.076 1.203 3.137 3.77 1.996 6.108-1.421 2.913-4.549 3.299-7.301 3.535-3.436.294-6.88.825-10.292 1.344-3.53.536-6.853 1.917-10.33 2.627-.324.066-.525-.383-.228-.575 2.742-1.772 6.076-2.748 9.143-3.741l.248-.081c1.663-.542 3.288-1.162 5.009-1.469 1.67-.299 3.35-.541 5.035-.725l.164-.016c1.855-.165 6.586-.109 6.386-3.025-.132-1.929-3.086-2.263-4.435-2.286-6.183-.105-12.411 1.638-18.287 3.505l-1.312.417c-2.406.769-4.816 1.56-7.176 2.461-2.676 1.021-4.784 2.613-6.732 4.792-2.161 2.416-4.253 4.887-6.495 7.221a258.951 258.951 0 01-4.287 4.352 4.816 4.816 0 00-.767 1.567c-.305 1.069-.235 2.061-.12 3.159.291 2.77.355 5.57.719 8.332.337 2.559.809 5.212 1.81 7.585.396.94.912 1.864 1.499 2.689l.474.655c.207.284.438.595.681.888.356-.462.871-.762 1.47-.687 1.273.159 2.274.121 3.523-.19.966-.24 1.925-.521 2.888-.781 1.889-.512 3.796-.978 5.667-1.566l.321-.103c1.394-.453 2.788-1.022 3.948-1.978 1.348-1.11 1.763-2.712 2.761-4.097 2.132-2.957 6.739-2.895 9.858-3.705 2.651-.688 5.201-1.775 7.036-3.817l.107-.121c-.081-.365.051-.776.369-.965l.07-.041a.72.72 0 01.389-.101c.171-.266.335-.54.484-.832.123-.24.43-.063.39.174-.024.142-.058.281-.089.419 1.777-.485 3.728-.392 5.532-.391l2.342-.009c.405-.005 1.009-.027 1.063-.053l.055-.026c.146-.067-.062.044.04-.099.113-.159.223-.319.331-.481.389-.577.756-1.17 1.115-1.77-3.92 1.061-7.982 1.721-11.985 2.271-4.295.591-8.647 1.001-12.98 1.005-1.194.001-1.183-1.914 0-1.962 4.589-.185 9.153-.444 13.711-1.068a110.59 110.59 0 007.038-1.203c.901-.182 1.799-.376 2.696-.581l.672-.156c.422-.099 1.613-.242 2.194-.656l.342-.624c-.056-.731-1.806-.633-2.216-.634-1.164-.003-2.327.007-3.491.01-2.327.008-4.654-.014-6.981-.034-4.65-.04-9.317-.212-13.963-.001-1.128.051-1.72-1.87-.605-2.375 4.921-2.231 10.383-2.715 15.638-3.401 2.763-.36 5.527-.777 8.229-1.506l.667-.181c1.697-.462 3.571-1.025 5-2.126-2.148-.922-4.817-.816-7.043-.947l-.171-.011a147.72 147.72 0 00-9.363-.312c-6.391-.009-12.783.231-19.166.553-.16.008-.193-.261-.038-.297 6.561-1.52 13.229-2.252 19.943-2.365 3.127-.052 6.256-.005 9.38.142l1.146.056c2.664.122 5.62.155 7.849 1.863.339.26.519.592.547.944 2.989-6.326 5.749-12.785 8.521-19.2 2.155-4.989 4.229-10.019 6.462-14.968l.723-1.602c.969-2.136 1.96-4.273 3.062-6.332-4.119-.585-8.26-.991-12.404-1.301-3.775-.284-16.095-.911-17.913-.537zm-1.823 68.564c.469-.277 1.189-.051 1.304.563.087.458.234.967.234 1.435 0 .561-.189 1.171-.29 1.72-.232 1.262-.517 2.288-1.122 3.413-.378.703-1.142 1.181-1.909 1.162-.608-.015-1.147-.188-1.564-.687-.499-.599-.842-1.479-.568-2.285.718-2.111 2.037-4.214 3.915-5.321zm-99.616-2.106c1.099-2.044 3.704-3.871 5.977-3.69 3.413.272 4.11 5.152.805 6.316-1.975.696-4.693-.019-6.421-1.164a1.127 1.127 0 01-.361-1.462zm-35.082-6.983c-.25-.385.163-.825.535-.738.825.192 1.715.276 2.522.537.828.267 1.629.711 2.448 1.016 1.717.638 3.551.959 5.213 1.729.664.309 1.186 1.33 1.125 2.083l-.016.176c-.036.374-.097.7-.294 1.041-.529.917-1.577 1.391-2.566 1.109-1.834-.523-3.626-1.868-5.19-2.984l-.29-.204c-.683-.478-1.418-.978-1.968-1.593-.575-.643-1.048-1.444-1.519-2.172zm63.059-7.433c-.212-.807.735-1.341 1.286-.795 1.102 1.09 2.254 2.101 3.334 3.219l.072.076c.773.824 1.898 2.414.892 3.481-1.288 1.367-3.081-.662-3.772-1.719-.877-1.342-1.402-2.693-1.812-4.262zm84.333-6.676c-1.635 1.839-4.154 2.684-6.372 3.385-2.629.829-5.339 1.325-8.051 1.733-2.62.394-5.221.746-7.8 1.198 1.951.025 3.902.041 5.848.078 2.245.043 4.488.094 6.732.164 1.635.05 3.552-.188 5.105.457.28.116.542.277.77.473a210.312 210.312 0 003.768-7.488zm-100.84-17.193c1.707-.575 3.311-1.339 5.12-1.141.481.052.825.549.563 1.04-.858 1.602-2.251 2.506-3.624 3.578l-.121.095a44.041 44.041 0 01-4.748 3.24c-2.812 1.676-5.332-3.12-2.492-4.527 1.709-.847 3.504-1.678 5.302-2.285zm30.721-4.164c2.611.183 5.22.307 7.834.419 3.027.13 2.009 5.077-.52 4.076a305.449 305.449 0 00-7.518-2.889c-.768-.281-.706-1.619.156-1.608l.048.002zm-66.956-8.8c.677-.051 1.359.106 2.037.176l.72.074c1.487.157 2.88.351 4.298.993 2.615 1.185 1.21 5.649-1.415 5.547-1.94-.076-3.6-.961-5.239-1.991-1.432-.9-2.31-2.027-3.278-3.441-.32-.468.126-.993.563-1.041.768-.083 1.545-.26 2.314-.317zm131.1-9.116a18.773 18.773 0 01-3.126 7.894c-.813 1.176-2.241 1.22-3.048 0-1.14-1.726-.437-3.704.422-5.362l.254-.485c.385-.728.976-1.79 1.651-2.523l.012-.076c.361-3.002 4.281-2.402 3.835.552zm-105.587-18.402c.65-.622 1.849-.435 2.06.578.296 1.418.476 3.016.282 4.456-.105.781-.144 1.657-.433 2.384-.311.782-.909 1.384-1.472 1.972-1.124 1.174-3.494.785-3.795-1.064l-.039-.227c-.151-.875-.345-1.811-.12-2.678.169-.655.547-1.322.86-1.929l.066-.129c.627-1.24 1.605-2.421 2.591-3.363zm91.478 3.018l.236.003c1.816.038 5.137.507 5.155 2.891.004.561-.388 1.143-.913 1.273-1.086.267-1.787-.414-2.561-1.103a7.799 7.799 0 00-2.137-1.335c-.828-.35-.774-1.731.22-1.729z" fill="#000"/><path fill-rule="evenodd" clip-rule="evenodd" d="M207.813 79.398c-.937-7.946-3.883-16.382-6.981-23.79-6.967-15.662-22.915-17.819-37.212-21.048-14.109-2.18-29.049-4.15-42.944.201-7.812 2.032-10.863 11.911-9.631 19.707.704 4.857 2.787 9.455 4.562 13.957 3.53 9.246 5.769 19.144 5.773 29.154-.242 6.542-1.112 14.008 5.968 16.779 6.737 3.557 7.307 13.2 15.743 18.672 3.411 7.336 12.703 7.982 19.39 9.684 4.227.859 8.502 1.491 12.788 1.899 12.411 1.689 22.34-2.13 28.837-13.869 4.348-7.144 7.585-15.394 6.786-24.052-.797-9.118-2.124-18.188-3.079-27.294z" fill="#fff"/><path fill-rule="evenodd" clip-rule="evenodd" d="M163.727 15.525c.708-.852 1.8-.56 2.462.114.431.135.849.336 1.244.602.892-.122 1.827-.122 2.701-.088.213-.126.44-.239.688-.335 1.768-.687 3.334-.338 4.626.581.622-.625 1.407-1.017 2.411-.958.895.053 1.533.5 2.08 1.09.546-.835 1.428-1.43 2.526-1.514 1.535-.115 3.011.538 4.235 1.55.712-.868 1.684-1.367 2.767-1.372a4.377 4.377 0 012.143.135c.987.316 1.853.909 2.542 1.678 1.092-1.11 2.427-1.908 3.967-1.791 1.994.153 3.646 1.709 4.414 3.624 1.349.574 2.595 1.392 3.636 2.56.055.06.108.125.164.19.561.22 1.089.53 1.553.94 1.473 1.302 1.802 3.185 1.314 5.03.068.296.127.596.18.897a4.566 4.566 0 013.345 2.444c.975 1.888.783 4.377-.273 6.18a8.195 8.195 0 01-1.678 2c.732 1.766.381 3.872-.799 5.3a6.796 6.796 0 01-1.038 1.338 4.331 4.331 0 01-1.897 4.683l-.133.354-.069.175c-.017.075-.038.148-.059.221a3.735 3.735 0 01-.637 1.882c-.816 1.227-1.828 2.027-2.364 3.46l-.054.15c-.231.678-.975 1.156-1.61.947 3.523 7.683 5.371 16.232 6.639 24.61.632 4.18 1.12 8.374 1.516 12.584l.388 4.193c.342 3.726.646 7.465.648 11.204.005 8.459-2.274 16.594-7.165 23.325-4.626 6.363-11.172 10.974-18.567 12.79-7.635 1.873-16.591 1.135-23.437-3.152-2.019-1.26-.25-4.292 1.804-3.278 3.888 1.921 7.839 3.348 12.149 3.667a29.557 29.557 0 0012.397-1.703c6.592-2.417 12.2-7.479 15.805-13.783 1.776-3.106 3.062-6.478 3.747-10.041.852-4.44.724-9.03.411-13.527l-.022-.306c-.619-8.665-1.435-17.383-2.754-25.962-1.165-7.586-2.958-15.018-5.285-22.286a12.484 12.484 0 00-3.022-2.092 204.076 204.076 0 00-23.975.335 188.483 188.483 0 00-20.3 2.591l-.72.134c-1.488.282-3.14.443-4.542 1.079-1.203.547-1.69 1.598-1.994 2.891-.763 3.27-.879 6.849-1.008 10.202-.126 3.278.16 6.583-.088 9.85-.21 2.733-.869 5.531-2.777 7.509-.998 1.035-2.225 1.6-3.377 2.387-.746.507-1.062 1.03-.966 1.969.208 2.055 1.766 4.643.016 6.403-.309.308-.842.349-1.145 0-.722-.834-1.72-1.47-2.577-2.143-.358-.28-.06-.82.346-.628.536.255 1.082.555 1.64.818-1.233-1.078-2.986-1.607-4.446-1.92a7.575 7.575 0 00-2.274-.13 40.867 40.867 0 01-3.949 1.72c-2.595 2.245-3.833 5.897-3.292 9.467.296 1.971 1.152 4.115 2.767 5.266 1.912 1.363 4.474.777 6.54 1.789 1.936.947 3.113 2.86 3.995 4.839l.367.825c.819 1.824 1.66 3.601 2.778 5.262 1.294 1.923 2.878 3.651 4.606 5.134a23.37 23.37 0 002.655 1.952l.253.159c.934.583 1.604 1.138 1.667 2.369.02.429-.235.821-.563 1.043-1.415.953-2.822-.238-4-1.07a29.357 29.357 0 01-3.61-3.004 29.404 29.404 0 01-5.409-7.257c-1.084-2.049-1.7-4.932-3.413-6.521-1.046-.968-2.524-.976-3.83-1.153-1.215-.166-2.365-.435-3.446-1.07-4.399-2.594-5.642-8.874-4.598-13.727.177-.818.424-1.615.73-2.382-1.637.29-3.477-1.507-2.812-3.321.05-.137.109-.265.164-.397-1.079-.754-1.93-1.896-2.334-3.39a5.717 5.717 0 01-.129-2.308 3.673 3.673 0 01-1.233-1.515c-.869-.427-1.64-1.065-2.099-1.977-.637-1.259-.556-2.417-.071-3.46a9.445 9.445 0 01-.197-.403c-1.781-1.2-3.024-3.265-2.883-5.556.046-.759.222-1.443.495-2.06-.022-.078-.045-.158-.065-.236-1.491-.805-2.724-2.127-3.163-3.892-.44-1.776.078-3.547 1.114-4.91-1.516-1.177-2.428-2.821-1.875-5.308a6.73 6.73 0 011.289-2.707c-.003-.024-.008-.048-.013-.072l-.142-.117c-1.871-1.568-2.947-3.566-1.798-6.024.515-1.104 1.25-1.875 2.114-2.382l.043-.144c-.619-1.409-.828-2.973-.401-4.617a5.417 5.417 0 012.23-3.15 7.078 7.078 0 01.053-1.952c.19-1.183.743-2.216 1.552-2.948.03-.156.068-.308.111-.462.273-.936.783-1.952 1.374-2.706.488-.625 1.033-.853 1.7-.878a6.896 6.896 0 01.099-1.754c.341-1.83 1.437-3.549 3.062-4.33a3.716 3.716 0 012.046-.335c.576-1.287 1.701-2.22 3.083-2.422a4.908 4.908 0 011.498-.003c.26-.129.53-.244.813-.349.187-.07.377-.134.566-.198a5.954 5.954 0 012.463-1.92c1.135-.47 2.289-.422 3.313-.028l.325-.072c.511-.939 1.324-1.666 2.575-1.996 1.42-.373 2.877.148 3.994 1.095.005 0 .01 0 .018-.003.583-1.387 1.581-2.353 3.256-2.285 1.044.042 1.986.593 2.714 1.376.404-.054.808-.102 1.215-.15.429-.534.907-1.033 1.435-1.481.864-.735 1.988-.676 2.625.36.139.224.268.452.396.68l.584-.043c.687-.984 1.625-1.65 2.908-1.703 1.177-.05 2.016.561 2.655 1.416.521-.013 1.044-.023 1.567-.032a9.727 9.727 0 012.144-1.955c.627-.419 1.552-.276 2.06.282.343.379.662.775.959 1.185a5.173 5.173 0 012.903-1.74zm-37.183 85.184c1.18-.714 2.766.059 3.908.665 1.392.738 2.774 1.851 3.625 3.246 1.16 1.899-1.566 3.434-2.786 1.73-.75-1.049-1.349-2.106-2.259-3.023-.831-.842-2.036-1.406-2.514-2.516-.017-.038-.012-.081.026-.102zm.829-46.1l.022-.067c.336-.974-1.128-1.394-1.461-.428-.504 1.465.077 3.058 1.44 3.69.377.176.809.115 1.036-.288.192-.34.103-.928-.271-1.101-.767-.356-1.024-.985-.766-1.806zm-12.616-2.725c.733-.686-.343-1.821-1.072-1.138-.681.638-1.185 1.505-1.054 2.501.133 1.016.855 1.733 1.644 2.24.837.537 1.6-.854.765-1.39l-.094-.061c-.35-.231-.76-.549-.819-1.003-.063-.483.322-.86.63-1.149zm4.162-12.117l.052-.04c.787-.597.031-1.994-.765-1.39-.731.553-1.316 1.272-1.378 2.263-.06.964.402 1.8 1.006 2.477.672.754 1.742-.385 1.072-1.138-.653-.733-.781-1.533.013-2.172z" fill="#000"/><path fill-rule="evenodd" clip-rule="evenodd" d="M190.8 118.763c.175-.05.33.2.184.337-.594.56-.972 1.604-1.406 2.316a31.769 31.769 0 00-1.174 2.055c-.407.795-.8 1.586-1.117 2.427l-.062.169c.094.24.169.476.223.632l.016.044c.541 1.467-.595 3.098-1.876 3.508-2.191.701-4.071-1.21-4.124-3.482-.041-1.788 1.1-3.38 2.26-4.562 1.014-1.034 2.15-1.914 3.421-2.558.56-.284 1.143-.522 1.751-.66.623-.141 1.294-.051 1.904-.226zm-4.129 6.478c.16.081.297.278.413.507a.799.799 0 00-.413-.507zm1.37-24.838c1.908 1.231 4.815 4.102 2.763 7.155-2.416 2.692-5.894-.394-7.608-1.79-1.59-1.082-3.375 1.7-1.901 2.963 12.386 9.736 17.412-8.006 7.711-9.776-1.068-.195-1.464 1.067-.965 1.448zM172.359 88.58l.337-.03c1.462-.137 2.943-.346 4.384.006 1.937.472 1.795 3.464 0 4.014-1.582.485-3.335.275-4.968.292-.257.002-.513.01-.77.014-.05.648-.251 1.207-.557 1.766-.22.4-.501.781-.777 1.137-.655.846-2.202.827-2.864 0-.49-.612-.88-1.316-.886-2.145a3.076 3.076 0 01.07-.659l-.891.017c-2.181.035-4.38.02-6.522-.349-.762.168-1.385-1.292-.334-1.729 2.86-1.187 6.054-1.537 9.088-1.893 1.559-.184 3.126-.31 4.69-.441zm24.358-1.227l.077-.008c1.892-.206 3.978-.562 5.874-.357 2.83.305 2.825 4.368 0 4.672-1.038.112-2.131.058-3.22-.05.557 1.256-.104 2.754-1.447 2.946-1.247.178-2.54-1.11-2.131-2.49l.02-.06c.079-.24.151-.508.236-.772l-.451-.04c-1.349-.127-3.222-.386-3.719-1.517-.15-.341-.115-.658.116-.949.946-1.195 3.277-1.235 4.645-1.375zm-20.12-9.302c1.369-.529 2.792.707 2.97 2.1.205 1.606-.886 2.663-2.268 2.854l-.069.01c-3.051.356-6.079 1.008-9.134 1.377a45.825 45.825 0 01-4.182.317l-.998.024c-1.224.033-2.536.063-3.665-.385l.005-.008c-.3-.092-.438-.551-.105-.802 1.203-.903 2.823-1.244 4.223-1.673 1.407-.432 2.825-.83 4.246-1.203 2.985-.784 6.085-1.496 8.977-2.612zm12.629.375c.363-2.031 3.073-2.249 4.068-.771.643.234 1.586.479 2.17.663 1.019.32 2.037.64 3.059.948 2.114.64 4.178 1.45 6.257 2.206.214.078.155.367-.051.395-2.901.401-5.754.588-8.674.46l-.598-.03c-2.573-.106-6.939.097-6.231-3.871z" fill="#000"/><path fill-rule="evenodd" clip-rule="evenodd" d="M193.392 130.432c-2.353-2.226-4.99-6.7-8.37-3.16-.836 1-1.174 3.243-2.453 3.683-1.698.585-3.38-1.323-3.959-2.787-2.367-8.138 7.419-10.37 12.994-9.056 2.723 1.188 4.729 5.968 4.85 8.463.079 1.676-1.258 4.142-3.062 2.857zm17.751-12.544a1.513 1.513 0 00-.094-.294c-1.041-.418-1.864.008-2.373.804.017.198.073.398.108.594-.393.878-.747 1.965-1.279 2.724a.85.85 0 01-.319-.036c-8.82.979-4.514-8.82-13.46-11.254-6.916-1.212-19.415.176-22.677 7.819-2.573 12.207-15.656 3.701-19.951-2.648-4.583-5.778-7.547-12.838-10.404-19.69-.604-1.449-2.488-.412-2.283.979-2.642 5.625-2.554 12.383-3.208 18.546-1.112 12.295-2.196 29.538 8.563 37.045 14.018 16.824 49.024 22.761 65.192 7.303 5.597-12.777 4.907-28.364 2.185-41.892z" fill="#000"/></svg>