<svg width="32" height="32" viewBox="0 0 32 32" fill="none" xmlns="http://www.w3.org/2000/svg">
<g clip-path="url(#clip0)">
<path fill-rule="evenodd" clip-rule="evenodd" d="M30.9905 44.2229C30.8302 43.3173 30.6832 42.4092 30.5497 41.4992C30.4863 41.0672 30.4245 40.6347 30.3689 40.2016C30.3299 39.8981 30.2706 39.5511 30.477 39.3263C30.7675 39.01 31.0313 38.7392 31.0668 38.286C31.1003 37.8597 30.9562 37.3949 30.866 36.981C30.6771 36.1131 30.4418 35.2559 30.1818 34.4069C29.9177 33.5442 29.6281 32.6897 29.3344 31.8368C29.0597 31.0394 28.7957 30.2348 28.438 29.4697C27.7591 28.0178 26.6106 26.9426 25.1912 26.2246C24.8382 26.0461 24.1182 25.4087 23.7494 25.266C23.4103 25.1347 23.4115 25.5179 23.0778 25.3736C22.8111 25.2582 22.5627 25.1043 22.4133 24.8467C22.2511 24.5669 21.8444 24.1756 21.7825 23.8499C21.6513 23.1596 21.7934 22.5721 21.301 22.0525C20.8637 21.5912 20.2761 21.2751 19.668 21.1054C18.3304 20.7322 16.5465 20.9931 15.7394 22.2366C15.354 22.8304 15.2193 23.5481 14.6991 24.0328C14.245 24.4559 14.3466 24.7452 13.7583 24.9633C13.725 24.9757 12.822 24.7819 12.7887 24.7943C12.1451 24.6565 11.5301 25.0422 10.9397 25.266C10.0595 25.5995 9.22149 26.0337 8.4342 26.5497C6.8467 27.5903 5.48703 28.9415 4.36609 30.4705C3.23588 32.0121 2.35896 33.74 1.73456 35.5459C1.58293 35.9845 1.44672 36.4285 1.32658 36.8769C1.25933 37.1278 1.18747 37.388 1.26935 37.6449C1.33632 37.855 1.4853 38.0115 1.66023 38.1376C1.89737 38.3085 2.37304 38.4196 2.36377 38.7634C2.35669 39.0249 2.26805 39.2999 2.22478 39.5582C2.17328 39.8659 2.13097 40.1753 2.08866 40.4843C1.89618 41.8906 1.74637 43.3049 1.68012 44.7232C1.6149 46.1197 1.56078 47.5447 1.65761 48.9407C1.66401 49.0328 1.69145 49.1173 1.73571 49.1887C1.6944 49.2045 1.69121 49.2816 1.74263 49.2925C1.77866 49.3002 1.81461 49.3078 1.85064 49.3154C1.92549 49.3721 2.01882 49.4068 2.12624 49.4102C2.19905 49.4125 2.27183 49.4158 2.34456 49.4195C3.11213 49.58 3.87957 49.7316 4.65715 49.8465C5.60236 49.986 6.55035 50.0998 7.50129 50.1923C9.45529 50.3823 11.3939 50.3193 13.3505 50.2169C15.3041 50.1146 17.2565 50.0907 19.2121 50.1415C21.1694 50.1925 23.1259 50.2777 25.0837 50.3125C27.2709 50.3514 29.4548 50.2916 31.6356 50.1177C31.9347 50.0939 32.1196 49.8559 32.0607 49.5588C31.7073 47.7788 31.3069 46.0106 30.9905 44.2229Z" fill="white"/>
<path fill-rule="evenodd" clip-rule="evenodd" d="M12.1783 24.7504C12.3805 24.7416 12.5868 24.7744 12.7886 24.7942C12.8061 24.7959 12.8128 24.8231 12.793 24.8272C12.4319 24.9027 12.0747 25.0059 11.7201 25.1108L11.5682 25.1557C11.1683 25.2741 10.78 25.3962 10.3929 25.5541C9.6212 25.8687 8.88832 26.2933 8.21381 26.7812C5.61648 28.6598 3.73665 31.5041 2.55037 34.4489C2.22821 35.2486 1.95524 36.0683 1.73413 36.9017C1.68036 37.1045 1.62978 37.308 1.58182 37.5122C1.56774 37.5721 1.50638 37.7254 1.54002 37.7867C1.56977 37.8409 1.68541 37.8743 1.73914 37.9025L1.92053 37.9966C2.27434 38.179 2.86369 38.4789 2.92279 38.5081L3.01497 38.5535C4.5226 39.2929 6.13349 39.9198 7.83005 39.9632L7.84333 39.8183C7.91897 39.017 8.01823 38.2115 8.23489 37.4348C8.24654 37.3931 8.29963 37.4072 8.30448 37.4443C8.42518 38.3637 8.3866 39.2903 8.34449 40.214C8.26993 41.85 8.1709 43.485 8.0829 45.1204C8.03883 45.9385 7.98189 46.756 7.93047 47.5736C7.87897 48.3929 7.8623 49.2318 7.74471 50.0443C7.7185 50.2254 7.50646 50.3239 7.34588 50.3048C7.16819 50.2837 7.03151 50.1271 7.03067 49.9476C7.02853 49.4743 7.08798 48.9954 7.12103 48.5232C7.1524 48.0746 7.18609 47.6263 7.22061 47.1779C7.34675 45.5416 7.49186 43.9071 7.62608 42.2715C7.67364 41.6914 7.72502 41.1118 7.77792 40.5322C5.98068 40.4743 4.30163 39.8083 2.69986 39.0302C2.67667 39.5568 2.62068 40.0825 2.56647 40.6069C2.41516 42.0704 2.28173 43.5333 2.18188 45.0014C2.13145 45.7428 2.09474 46.4852 2.06277 47.2276C2.04706 47.5925 2.03426 47.9575 2.02443 48.3226C2.02115 48.4443 2.01818 48.566 2.01555 48.6877L2.01009 48.9665C2.00562 49.1431 1.98766 49.3068 1.83908 49.4354C1.68816 49.566 1.48431 49.573 1.33494 49.4354C1.13498 49.2512 1.17034 49.0002 1.17626 48.7529C1.18119 48.5442 1.18712 48.3356 1.194 48.127C1.2078 47.7098 1.22542 47.2927 1.24685 46.8758C1.32186 45.4183 1.47173 43.9666 1.66758 42.5208L1.74404 41.9626C1.88682 40.9251 2.04357 39.8639 2.36274 38.8644C2.23847 38.8026 2.11455 38.7403 1.99111 38.6778C1.77215 38.5669 1.54575 38.4628 1.33291 38.3404C1.16405 38.2433 1.01842 38.1101 0.971417 37.9135C0.918994 37.6945 0.999157 37.4549 1.05241 37.2413L1.05704 37.2225C1.10925 37.0074 1.16549 36.7932 1.22482 36.5799C1.46542 35.7151 1.76292 34.8671 2.11109 34.0398C2.80822 32.3835 3.70805 30.81 4.8072 29.3873C5.79659 28.1067 6.96537 26.9453 8.33522 26.0743C9.00492 25.6485 9.7186 25.2988 10.4734 25.0516C10.8261 24.9361 11.21 24.8356 11.5793 24.7942C11.7786 24.7719 11.9781 24.7591 12.1783 24.7504ZM15.7617 22.1259C16.0021 21.8677 16.4796 22.1349 16.3642 22.4768C16.0928 23.2812 15.6605 24.0149 14.9859 24.5435C14.3517 25.0404 13.5955 25.3631 12.7812 25.2942C12.7749 25.2936 12.7694 25.2921 12.7646 25.2898L12.8348 25.385C13.3858 26.1306 13.967 26.8659 14.6676 27.4753C16.095 28.717 18.0385 29.3867 19.9151 28.9103C21.3916 28.5355 22.6924 27.3675 23.075 25.8789C23.0202 25.9035 22.955 25.9119 22.8834 25.8964C22.5774 25.8299 22.2743 25.5078 22.0769 25.2769C21.8634 25.0271 21.6966 24.7574 21.5743 24.4525C21.3506 23.8945 21.2788 23.176 21.5843 22.6355C21.622 22.5689 21.709 22.6062 21.7164 22.6713L21.728 22.7728C21.7869 23.2794 21.8603 23.7694 22.099 24.2312C22.2159 24.4572 22.3559 24.6778 22.5264 24.867C22.6176 24.9683 22.7165 25.065 22.8233 25.1499C22.9274 25.2326 23.0533 25.2924 23.1466 25.3873L23.1637 25.4056L23.1641 25.4023C23.1877 25.2017 23.3283 25.1134 23.4659 25.1189C23.599 25.1243 23.7553 25.1829 23.8159 25.211L23.8216 25.2137C24.7503 25.6596 25.6056 26.2409 26.4105 26.8858C28.075 28.2195 29.3222 29.963 29.9264 32.0162C30.223 33.0239 30.3932 34.0622 30.5729 35.0957L30.6835 35.7289C30.8511 36.6829 31.0384 37.6558 31.417 38.5433C31.5149 38.7729 31.4394 38.9882 31.1993 39.0785C30.8995 39.1912 30.5986 39.3004 30.2973 39.4082C30.4453 40.0433 30.5355 40.7003 30.6464 41.3385C30.882 42.6951 31.1708 44.043 31.4184 45.3978C31.545 46.0905 31.6592 46.7855 31.7856 47.4783C31.8465 47.812 31.9101 48.1451 31.9719 48.4786C32.0052 48.6584 32.0353 48.8388 32.0671 49.0188L32.0727 49.0487C32.0909 49.1437 32.1137 49.242 32.0876 49.337C32.0578 49.4454 31.9732 49.522 31.8977 49.5998C31.8356 49.6638 31.7457 49.6642 31.6696 49.6292L31.6445 49.6176C31.5085 49.554 31.4019 49.4905 31.3537 49.337C31.3231 49.2398 31.3121 49.1303 31.2922 49.0302C31.2539 48.8383 31.2176 48.6461 31.1833 48.4533C31.1147 48.0677 31.0477 47.6818 30.9824 47.2956L30.9213 46.9339C30.7117 45.6875 30.5127 44.4336 30.4121 43.174C30.3674 42.6152 30.3201 42.0569 30.2724 41.4985L30.2365 41.0797C30.1912 40.5496 30.1358 40.0061 30.128 39.4688L29.9478 39.5328L29.0685 39.8437C28.8504 39.9208 28.5729 40.0787 28.3382 40.05C28.2234 40.0359 28.1358 39.9998 28.0682 39.934C28.1492 41.0772 28.2588 42.2183 28.4048 43.3536C28.5377 44.3866 28.6851 45.4182 28.8591 46.4452C28.9453 46.9537 29.0339 47.4617 29.1301 47.9684C29.1781 48.2218 29.2278 48.4748 29.2789 48.7276C29.3044 48.8537 29.3347 48.9799 29.3546 49.1071C29.3774 49.2527 29.3373 49.3423 29.256 49.4621C29.1892 49.5604 29.0556 49.611 28.9473 49.5431C28.8039 49.453 28.7291 49.3751 28.6869 49.2111C28.6486 49.0622 28.6253 48.9067 28.5956 48.7559C28.5409 48.4775 28.4879 48.1988 28.4368 47.9197C28.33 47.3359 28.2315 46.7508 28.1435 46.1639C27.8335 44.0964 27.6368 42.0116 27.5375 39.9234C27.4884 38.8931 27.4733 37.8619 27.482 36.8306C27.4864 36.3019 27.5037 35.7718 27.5411 35.2444C27.5789 34.7107 27.6577 34.1875 27.728 33.6589C27.7305 33.6403 27.7567 33.6392 27.7578 33.6589C27.7911 34.2516 27.8433 34.8436 27.8689 35.4379C27.8933 36.0049 27.904 36.5728 27.9234 37.14C27.9489 37.8857 27.9842 38.6317 28.031 39.3773C28.1158 39.2845 28.2435 39.2311 28.3713 39.252C28.5565 39.2131 28.7558 39.1159 28.9323 39.0569L29.5978 38.8345C29.9476 38.7176 30.2975 38.6015 30.6486 38.4889C30.3347 37.4326 30.1197 36.3604 29.9361 35.2727L29.8542 34.7835C29.6921 33.8205 29.5173 32.8572 29.2237 31.9247C28.9151 30.9443 28.4532 30.0329 27.8405 29.2075C27.2366 28.3941 26.5018 27.6778 25.7452 27.0078C25.0975 26.4343 24.4047 25.9165 23.744 25.3587C23.7509 25.3957 23.7524 25.4364 23.7463 25.4811C23.6059 26.5095 23.0696 27.4672 22.3222 28.1795C20.8208 29.6106 18.5983 29.9075 16.6766 29.2364C14.8177 28.5873 13.1742 27.05 12.5936 25.1477C12.5836 25.1151 12.6272 25.1022 12.6447 25.1261C12.6769 25.1703 12.7093 25.2144 12.7417 25.2586C12.7395 25.241 12.7486 25.222 12.7703 25.2136C13.4478 24.9519 14.113 24.5808 14.6209 24.0557C14.8684 23.7998 15.0844 23.5099 15.2549 23.1972C15.3366 23.0474 15.41 22.8923 15.4685 22.732L15.4834 22.6905C15.5544 22.4897 15.6136 22.285 15.7617 22.1259Z" fill="black"/>
<path fill-rule="evenodd" clip-rule="evenodd" d="M15.2716 6.32178L15.615 6.73042C15.4248 6.8645 15.2453 6.99922 15.0764 7.13459L15.0763 7.13418C15.8585 6.62359 16.7249 6.32178 17.6608 6.32178C19.4634 6.32178 23.125 7.87083 23.9527 8.98816C24.3634 9.54265 25.1268 11.2449 25.5227 13.0955C25.8409 14.5825 26.3141 18.7834 25.8409 20.3619C25.2353 22.3821 23.2428 24.2493 21.1884 24.2493C19.134 24.2493 15.9444 22.7656 13.6744 19.514C13.5706 19.3653 12.3786 19.193 11.5283 18.6349L11.7515 21.0954L11.9212 22.5267L11.8837 22.6286C11.2747 24.2763 10.7921 25.1359 10.4359 25.2075C10.0724 25.2805 9.33224 24.6844 8.21529 23.4193L8.07257 22.8201C7.71006 21.2914 7.52881 20.4708 7.52881 20.3584L7.52906 20.3379C7.5344 20.0792 7.6235 18.6148 7.62533 18.2207L7.62536 12.3143C8.8266 8.31927 9.97292 6.32178 11.0643 6.32178H15.2716Z" fill="white"/>
<path fill-rule="evenodd" clip-rule="evenodd" d="M12.4253 4.96117C12.7785 4.82431 13.1876 4.85017 13.5229 5.05625C14.1811 5.028 14.8357 5.41311 15.1788 5.97525C15.186 5.98321 15.1936 5.99117 15.2003 5.99912L15.2731 6.08392C15.3419 6.1649 15.4146 6.25415 15.4721 6.34631C15.1902 6.35276 14.9554 6.46769 14.7915 6.69983C14.6745 6.86547 14.9424 7.02287 15.062 6.86621L15.0662 6.86048C15.1646 6.72112 15.3132 6.66713 15.4786 6.6643C15.5261 6.66351 15.5621 6.64533 15.5876 6.61851C15.5977 6.65547 15.6068 6.69283 15.6151 6.73035C16.4479 6.40631 17.3457 6.32049 18.2399 6.39736C18.2007 6.46085 18.1679 6.52888 18.1427 6.60037C18.1141 6.68141 18.1751 6.77447 18.2538 6.79611C18.3389 6.8195 18.4158 6.7696 18.4466 6.6925L18.4495 6.68495C18.4838 6.58756 18.5399 6.50398 18.6153 6.43917C19.0362 6.49626 19.4542 6.58704 19.8619 6.70409C20.352 6.84488 20.8374 7.01671 21.3122 7.21344C21.2317 7.24499 21.1623 7.2983 21.1136 7.38729C21.0165 7.56493 21.2835 7.72405 21.3848 7.55422L21.3884 7.54794C21.3983 7.52973 21.4071 7.51877 21.4135 7.51254L21.4158 7.51042L21.4298 7.50398L21.4559 7.4965L21.4659 7.49404C21.4748 7.49205 21.4784 7.49217 21.5017 7.49089C21.5326 7.48914 21.5636 7.4893 21.5946 7.48926C21.6674 7.48922 21.7139 7.4486 21.735 7.39664C21.9692 7.50243 22.2005 7.61382 22.4277 7.7305L22.4817 7.75848C23.183 8.12503 23.8474 8.6064 24.2328 9.31469C24.2583 9.36203 24.2662 9.41375 24.2599 9.46308C24.3422 9.56174 24.4217 9.66359 24.4981 9.76703C24.7311 10.0837 24.9017 10.4437 25.0632 10.8006C25.3881 11.5183 25.6068 12.2555 25.7774 13.0241C25.9425 13.7649 26.0757 14.5136 26.1994 15.2623C26.3365 16.0942 26.4507 16.9332 26.4746 17.7771C26.5167 19.2813 26.2228 20.7942 25.3785 22.0606C24.6254 23.1904 23.4912 24.0875 22.1462 24.3748C20.7782 24.6668 19.3306 24.3819 18.2525 23.4701C18.0787 23.3233 18.1026 23.0269 18.2525 22.8765C18.4223 22.707 18.6728 22.7305 18.8458 22.8765C19.8611 23.7354 21.3389 23.8679 22.5622 23.4303C23.6932 23.0253 24.5792 22.0912 25.1228 21.0421C25.7861 19.7627 25.8979 18.2931 25.7961 16.8776C25.7404 16.1002 25.6247 15.3292 25.5054 14.5594L25.4334 14.096C25.3548 13.5941 25.2723 13.0928 25.1646 12.596L25.1394 12.4803C25.0078 11.8812 24.8537 11.2667 24.6154 10.7035C24.4905 10.4079 24.3402 10.1231 24.1863 9.84182C24.1565 9.78732 24.1258 9.73202 24.0944 9.67632C24.0523 9.69104 24.0041 9.69343 23.9536 9.67751C23.519 9.54225 23.0724 9.45154 22.6179 9.42131C22.4108 9.40746 22.2034 9.40531 21.9962 9.41339C21.6416 9.39274 21.2771 9.42393 20.9393 9.5327C20.9063 9.50434 20.8728 9.47657 20.8393 9.4488C20.8303 9.44808 20.8212 9.44713 20.8122 9.44534C20.726 9.42839 20.6654 9.36712 20.6289 9.28974C20.627 9.28565 20.6252 9.28155 20.6236 9.27745C20.5804 9.24439 20.5368 9.21185 20.4928 9.17974C20.3856 9.20755 20.2917 9.11832 20.2664 9.02053C20.2425 9.00442 20.2183 8.98882 20.1942 8.97303C20.1753 8.97764 20.1565 8.98146 20.1382 8.98281C20.0593 8.9885 19.983 8.97641 19.9131 8.93873C19.8245 8.89103 19.7679 8.81409 19.7301 8.72669C19.5961 8.73492 19.4606 8.69144 19.3409 8.61283C19.2437 8.54905 19.1692 8.46101 19.0952 8.37313C18.1934 7.97072 17.213 7.73313 16.2303 7.67226C16.1335 7.69088 16.0374 7.71304 15.9425 7.73882C15.92 7.74495 15.8881 7.75696 15.8514 7.77136C16.0705 7.74487 16.2924 7.74224 16.5174 7.77466C17.5854 7.92914 18.4171 8.72903 19.133 9.48409C19.3033 9.44967 19.4754 9.67027 19.3178 9.81636L18.0891 10.9554C18.1192 11.0828 17.9732 11.2083 17.8453 11.1778C17.6308 11.1262 17.4159 11.0761 17.2009 11.0268C16.9766 11.1353 16.6946 11.1168 16.4911 10.9594C16.4817 10.9521 16.4611 10.9404 16.4432 10.9287C16.4265 10.9426 16.4041 10.9564 16.3951 10.9623C16.3228 11.0102 16.2347 11.0243 16.1502 11.0108C16.0632 10.997 15.9848 10.9529 15.9171 10.898C15.874 10.863 15.7737 10.7169 15.7179 10.7062L15.7124 10.7056C15.7497 10.7066 15.6299 10.818 15.5977 10.841C15.5227 10.8946 15.4397 10.9228 15.3462 10.9125C15.1834 10.8946 15.0435 10.7462 14.9638 10.6091L14.9578 10.5986L14.9553 10.5921L14.9532 10.5991C14.9528 10.6004 14.9524 10.6017 14.9518 10.6032C14.9399 10.6355 14.9024 10.6721 14.877 10.6947C14.8044 10.7589 14.7146 10.7871 14.6187 10.7703C14.5375 10.7562 14.4693 10.7071 14.4144 10.6477L14.4058 10.6383C14.3896 10.62 14.2827 10.4762 14.2995 10.4418L14.3015 10.4389L14.2962 10.4377C14.2311 10.4537 14.1765 10.4377 14.1365 10.4042C13.9132 10.3552 13.6929 10.2982 13.4796 10.2257C13.4629 10.2727 13.4465 10.3196 13.4307 10.367C13.5471 10.439 13.6549 10.5416 13.7539 10.6148C13.9417 10.7533 14.1293 10.8917 14.3166 11.0306L15.0588 11.5782L15.1437 11.5554C15.2521 11.5263 15.3452 11.5894 15.385 11.686L15.3882 11.6943C15.404 11.7366 15.423 11.7757 15.4454 11.8132C15.6309 11.8058 15.788 11.9197 15.8388 12.0831C15.8846 12.0821 15.9309 12.0839 15.9782 12.0891C16.1078 12.1033 16.1952 12.1996 16.1717 12.3318L16.1699 12.3409L16.1668 12.3556C16.2419 12.3875 16.2964 12.4491 16.3085 12.5423C16.3286 12.5726 16.3448 12.6055 16.3552 12.6422C16.4094 12.8325 16.3039 13.0678 16.2478 13.2501L16.2434 13.2644C16.2074 13.3842 16.1701 13.5035 16.1323 13.6227L16.0383 13.9186C15.7776 14.7434 15.5234 15.613 15.7344 16.4777C15.7794 16.6607 15.5455 16.7435 15.4441 16.6003C15.1982 16.2535 14.9326 15.9268 14.6537 15.6131L14.6402 15.611C14.4449 15.5717 14.3691 15.4337 14.2794 15.293C14.2266 15.3086 14.1698 15.3122 14.1149 15.3016C14.0355 15.2863 13.9643 15.2409 13.9081 15.1836C13.8605 15.135 13.8169 15.0103 13.7606 14.9794C13.6902 14.9408 13.5487 14.996 13.4647 14.9836C13.3963 14.9735 13.3325 14.95 13.2705 14.9206C13.1567 15.0758 13.0813 15.2582 13.0628 15.4549C13.0556 15.5297 13.0333 15.5929 13.0011 15.6455C13.1196 15.6411 13.2385 15.6494 13.3559 15.6713C13.7902 15.7521 14.1015 16.0202 14.2765 16.4196C14.284 16.4371 14.2614 16.4515 14.251 16.4348C13.9914 16.0349 13.4262 16.0146 13.0158 16.1555C12.58 16.3051 12.3354 16.689 12.2484 17.127C12.1529 17.6072 12.2754 18.1248 12.5367 18.5337C12.6579 18.7239 12.8234 18.8974 13.0433 18.9674C13.3046 19.0505 13.5459 18.9017 13.8136 18.9785C13.9957 19.0306 14.0761 19.2069 14.043 19.3831C14.0299 19.4523 14.0057 19.5128 13.9731 19.5653C14.0693 19.7563 14.1584 19.9528 14.2717 20.1334C14.4467 20.4123 14.6583 20.6431 14.8889 20.8758C15.1271 21.1161 15.3697 21.3516 15.6246 21.5744C15.8688 21.788 16.1488 21.94 16.4049 22.1357C16.5847 22.273 16.6737 22.4656 16.585 22.686C16.5119 22.8682 16.2653 23.0233 16.0656 22.941C15.6835 22.7834 15.349 22.5153 15.0444 22.2392C14.7621 21.983 14.5163 21.6766 14.3306 21.3441C14.1554 21.0305 14.0263 20.6744 13.9174 20.3314L13.9039 20.2886C13.8526 20.1255 13.7985 19.9421 13.7635 19.7571C13.5539 19.8717 13.2696 19.8884 13.0453 19.8573C12.683 19.8076 12.3525 19.625 12.1028 19.3589C11.9864 19.235 11.8835 19.0937 11.7946 18.9406C11.8027 19.0338 11.8075 19.124 11.8127 19.2061C12.0203 19.4336 12.1036 19.7619 12.0299 20.0614C12.2036 20.2403 12.2523 20.5088 12.1616 20.7374C12.3517 20.926 12.3446 21.2262 12.2624 21.4989C12.4872 21.7502 12.5084 22.1417 12.3329 22.4253L12.3277 22.4456C12.5049 22.7423 12.4649 23.1256 12.2429 23.3875C12.3945 23.6818 12.371 24.0775 11.9921 24.1917C11.854 24.2333 11.7201 24.1978 11.6199 24.1204C11.7114 24.5755 11.7523 25.0375 11.6304 25.4947C11.5818 25.6761 11.4044 25.8086 11.2179 25.8086C11.062 25.8086 10.9487 25.7302 10.8704 25.6148C10.8795 25.8444 10.8656 26.0751 10.8167 26.3079C10.7872 26.4484 10.6569 26.558 10.5185 26.5919C10.5684 26.6482 10.5883 26.7297 10.5405 26.8145C10.3376 27.1737 9.84748 27.0247 9.81435 26.6805C9.67592 26.5772 9.61157 26.4075 9.58493 26.2241C9.54612 25.9567 9.53204 25.6937 9.48805 25.4297L9.47124 25.4454L9.46256 25.4529L9.45978 25.472C9.43457 25.6025 9.361 25.6939 9.26551 25.7484C9.28627 25.976 9.24786 26.2078 9.1035 26.3807C9.00734 26.4959 8.84353 26.5413 8.70311 26.5163C8.69428 26.5167 8.68526 26.5167 8.67587 26.5154C8.35785 26.4732 8.17384 26.1714 8.25755 25.8944C8.1295 25.7374 8.07557 25.5382 8.11347 25.3414C7.86568 25.1772 7.87073 24.8167 7.95655 24.5271C7.69678 24.3221 7.59907 23.9387 7.72959 23.634C7.49548 23.3431 7.46291 22.9378 7.62198 22.6066C7.3644 22.3949 7.36587 21.9862 7.62134 21.7697C7.4853 21.4995 7.40326 21.1758 7.53922 20.9286C7.4433 20.8227 7.39065 20.6717 7.40174 20.5259C7.41801 20.3117 7.55966 20.1637 7.73544 20.0651L7.74761 19.9981C7.78889 20.0032 7.83287 19.9917 7.87164 19.9544C7.91002 19.9175 7.94951 19.8878 7.99035 19.8633C8.0366 19.8627 8.07641 19.8421 8.10441 19.8104C8.181 19.7844 8.26336 19.7729 8.35471 19.7718C8.55199 19.7697 8.55895 19.4745 8.37535 19.4554C8.34635 19.4262 8.30643 19.4077 8.26312 19.4077L8.22921 19.4079C8.14992 19.4086 8.06988 19.4135 7.99632 19.4451C7.94852 19.4655 7.91165 19.4963 7.88465 19.5341C7.8796 19.5911 7.84858 19.648 7.78141 19.695C7.70382 19.7492 7.59772 19.7556 7.51469 19.7065C7.39844 19.6377 7.39725 19.5304 7.41065 19.4138C7.44 19.1586 7.29334 18.9185 7.32825 18.6574C7.34372 18.542 7.38214 18.4424 7.44477 18.3619C7.3127 18.1641 7.2894 17.9088 7.39109 17.6917C7.17924 17.4637 7.14262 17.1123 7.27771 16.8379C7.27966 16.8312 7.28117 16.8244 7.28328 16.8179C7.29855 16.7712 7.31958 16.7292 7.34277 16.689C7.22418 16.4835 7.22506 16.2313 7.34559 16.0266C7.16302 15.8137 7.15721 15.4749 7.31958 15.2455C7.32054 15.2265 7.32253 15.2074 7.32416 15.1884C7.24963 14.9949 7.26753 14.7748 7.36206 14.5948C7.32833 14.5171 7.30232 14.4333 7.2857 14.3441C7.24311 14.1142 7.26502 13.8906 7.32865 13.6662C7.33895 13.6308 7.35048 13.5954 7.36281 13.56C7.36488 13.4063 7.37073 13.2533 7.37844 13.1006C7.3482 12.9713 7.34333 12.8292 7.34266 12.6973L7.34247 12.6118C7.34099 12.3941 7.32582 12.0754 7.46339 11.8904C7.37506 11.6905 7.41137 11.4387 7.55879 11.2803C7.45531 11.1022 7.4336 10.8836 7.53759 10.6861C7.55429 10.6543 7.57366 10.6247 7.5949 10.5967C7.58631 10.4158 7.62437 10.2293 7.72072 10.0495C7.78332 9.93245 7.87681 9.83112 7.98797 9.75004C7.9861 9.72605 7.98494 9.7021 7.98534 9.67851C7.98729 9.57324 8.01063 9.46754 8.04992 9.36891C7.97941 9.24853 7.94673 9.11283 7.98797 8.96658C8.0341 8.80108 8.15543 8.65866 8.3069 8.57829C8.31911 8.42226 8.34349 8.26715 8.37833 8.1141C8.28523 7.90671 8.35936 7.633 8.56977 7.51082C8.54233 7.34508 8.56707 7.17322 8.68764 7.04376C8.73334 6.99471 8.78718 6.95751 8.84512 6.93284C8.81721 6.76619 8.8487 6.59281 8.96391 6.45711C9.058 6.34631 9.19743 6.279 9.33932 6.26909C9.39396 5.97923 9.67079 5.76249 9.96284 5.77976C9.99935 5.65213 10.0866 5.54086 10.2219 5.48444C10.2565 5.47 10.2915 5.46049 10.3264 5.4552C10.5639 5.21554 10.9174 5.05311 11.2235 4.96992C11.5306 4.88681 11.8418 4.87877 12.1054 4.97539L12.1246 4.98265L12.1461 4.97987C12.2392 4.96952 12.3322 4.96356 12.4253 4.96117ZM10.0922 24.6038C10.0102 24.5783 9.91877 24.6341 9.89653 24.715C9.87307 24.8004 9.92533 24.8851 10.0076 24.9107C10.1102 24.9427 10.2179 24.9507 10.3248 24.9508C10.4108 24.9509 10.4839 24.8776 10.4839 24.7917C10.4839 24.7053 10.4111 24.6326 10.3248 24.6325C10.2379 24.6325 10.1737 24.6293 10.0922 24.6038ZM9.36254 22.9138C9.23993 22.9139 9.13479 22.9432 9.04388 23.0291C8.98327 23.0865 8.98176 23.1972 9.04388 23.2542C9.10662 23.3118 9.19764 23.3152 9.26205 23.2603L9.27445 23.2492C9.27594 23.2478 9.2771 23.2468 9.27803 23.2459C9.2832 23.2425 9.28841 23.2391 9.2939 23.2362L9.28352 23.243C9.27562 23.2487 9.29395 23.2394 9.30422 23.235L9.30746 23.2337L9.30849 23.2335L9.31672 23.2328C9.33195 23.232 9.34727 23.2321 9.36254 23.2321C9.44573 23.232 9.52543 23.1589 9.52161 23.0729C9.51771 22.9868 9.4517 22.9137 9.36254 22.9138ZM11.6762 21.9042C11.8484 21.7986 11.6946 21.5285 11.5219 21.6257L11.5156 21.6294C11.4271 21.6838 11.3182 21.6764 11.2179 21.6764C11.0133 21.6766 11.0129 21.9948 11.2179 21.9947L11.2518 21.9946C11.3989 21.9935 11.5476 21.9832 11.6762 21.9042ZM10.3212 20.7426C10.1911 20.7181 10.0454 20.6962 9.90848 20.7111L9.88575 20.714H9.84364C9.80705 20.714 9.77162 20.7287 9.74318 20.7518C9.69817 20.7705 9.65553 20.7956 9.61664 20.8293C9.46167 20.9637 9.68751 21.188 9.84161 21.0544C9.85017 21.0469 9.8601 21.0408 9.87114 21.0358L9.87963 21.0322H10.0498C10.0653 21.0322 10.0803 21.029 10.095 21.0243C10.1502 21.0319 10.2017 21.0429 10.2366 21.0495C10.4367 21.0871 10.5224 20.7804 10.3212 20.7426ZM10.176 17.6879C9.92668 17.5722 9.65053 17.573 9.41991 17.7337C9.25501 17.8486 9.40819 18.1195 9.57451 18.0125L9.58046 18.0085C9.60114 17.9941 9.62237 17.9821 9.64385 17.9711C9.76092 18.005 9.87877 18.0066 9.99195 17.9649L10.0067 17.9593L10.0155 17.9627C10.2 18.0483 10.3618 17.7741 10.176 17.6879ZM12.891 17.1892C12.6391 17.161 12.637 16.7629 12.891 16.7914C13.4271 16.8515 13.9135 17.09 14.2698 17.4994C14.4355 17.6898 14.1626 17.9684 13.9938 17.7865L13.9886 17.7807C13.7053 17.4551 13.323 17.2377 12.891 17.1892ZM10.0692 15.1455C10.0132 15.1393 9.95736 15.1363 9.90236 15.1389C9.77025 15.1453 9.60935 15.2335 9.66733 15.3928C9.71382 15.5204 9.86621 15.5254 9.94145 15.4574C9.97275 15.4581 10.004 15.4602 10.0351 15.4634C10.1182 15.4719 10.2005 15.4878 10.2824 15.5039C10.4824 15.5433 10.568 15.2366 10.367 15.197L10.2781 15.1794C10.2481 15.1735 10.2179 15.1678 10.1875 15.1625C10.1693 15.1535 10.1498 15.1474 10.129 15.1459L10.1185 15.1455H10.0692ZM8.48843 12.6764L8.46974 12.6738C8.20111 12.6395 7.76989 12.6711 7.73729 13.0132C7.71927 13.2026 7.99288 13.2145 8.04688 13.0525C8.24524 13.0168 8.44524 13.0099 8.64225 13.0316C8.71741 12.9553 8.71801 12.8084 8.5929 12.7718C8.57524 12.7243 8.53837 12.6836 8.48843 12.6764ZM14.6289 12.0986C14.5669 12.0416 14.4651 12.034 14.404 12.0986C14.3688 12.1358 14.3394 12.1771 14.3161 12.2225L14.3006 12.2532C14.298 12.2583 14.2953 12.2633 14.2925 12.2683C14.2873 12.2776 14.2815 12.2864 14.2758 12.2954L14.272 12.2992C14.2705 12.3007 14.2687 12.3026 14.2665 12.3048C14.2093 12.3654 14.202 12.4707 14.2665 12.5299C14.3286 12.5869 14.4304 12.5945 14.4915 12.5299C14.5267 12.4927 14.556 12.4515 14.5794 12.406L14.5948 12.3754C14.5974 12.3703 14.6001 12.3652 14.6029 12.3602C14.6081 12.3509 14.614 12.3421 14.6196 12.3331L14.626 12.3268C14.6269 12.3258 14.6279 12.3248 14.6289 12.3237C14.6862 12.2632 14.6934 12.1578 14.6289 12.0986ZM11.367 11.6841C11.1429 11.5252 10.8764 11.5178 10.6703 11.7089C10.5216 11.8469 10.7401 12.068 10.89 11.9387L10.8953 11.934C10.9007 11.9289 10.9063 11.9244 10.9118 11.9202C10.9386 11.9431 10.9728 11.9576 11.0118 11.9577C11.0221 11.9577 11.0322 11.9577 11.0424 11.9579L11.0577 11.9584L11.0659 11.9591L11.0669 11.9593L11.0741 11.9623C11.0872 11.9682 11.1052 11.9773 11.0804 11.9618C11.086 11.9647 11.0911 11.9682 11.0964 11.9715L11.1055 11.9798C11.1655 12.0365 11.2693 12.044 11.3288 11.9813C11.4342 11.9456 11.4902 11.7713 11.367 11.6841ZM13.5583 11.1629L13.5623 11.1616C13.7589 11.1054 13.6753 10.7983 13.4778 10.8546C13.2681 10.9145 13.168 11.1097 13.1261 11.3095C13.1085 11.3936 13.1508 11.4816 13.2372 11.5053C13.3162 11.527 13.4152 11.4787 13.4329 11.3942C13.4454 11.3347 13.4597 11.2843 13.4824 11.2375L13.4962 11.2108C13.5026 11.1987 13.5048 11.1966 13.5265 11.1777C13.5302 11.1745 13.5467 11.1668 13.5583 11.1629ZM10.2295 9.55991L10.1988 9.5529C10.0073 9.51094 9.75317 9.48903 9.63755 9.6789C9.53217 9.85188 9.79802 10.0093 9.9075 9.84583C9.90917 9.84578 9.91108 9.8458 9.91332 9.84598L9.91692 9.84639L9.966 9.84241C10.0271 9.84198 10.0856 9.8528 10.1449 9.86684C10.344 9.91398 10.429 9.60717 10.2295 9.55991ZM17.1028 8.33643C17.2478 8.19142 17.0229 7.96628 16.8779 8.11141C16.7633 8.22611 16.6527 8.3416 16.5781 8.48733C16.539 8.56379 16.5582 8.65999 16.6352 8.70506C16.7063 8.74664 16.8136 8.72475 16.8528 8.64797C16.9174 8.52166 16.999 8.44042 17.1028 8.33643ZM15.2736 7.95562C15.1304 8.04043 15.0377 8.18015 14.9815 8.34187C14.9532 8.42303 15.0136 8.51593 15.0926 8.53761C15.1774 8.56093 15.2549 8.51121 15.2854 8.43401L15.2882 8.42645C15.3033 8.38321 15.3274 8.33213 15.3572 8.29358C15.3826 8.26068 15.4222 8.22774 15.452 8.21679C15.5237 8.19046 15.5745 8.12545 15.5679 8.04954C15.45 8.09032 15.3405 8.04127 15.2736 7.95562ZM10.9867 7.26348C10.8423 7.12933 10.6484 7.11154 10.4733 7.19274C10.3953 7.22886 10.3758 7.34133 10.4162 7.41048C10.463 7.49048 10.5556 7.50385 10.6338 7.46757C10.6137 7.47688 10.65 7.46458 10.6657 7.46009C10.6677 7.46102 10.694 7.45982 10.703 7.45995L10.7139 7.46064C10.714 7.46071 10.7113 7.46066 10.7059 7.46048C10.7135 7.46221 10.7211 7.46427 10.7285 7.46664L10.738 7.46992C10.7332 7.46893 10.7547 7.48294 10.7607 7.4876L10.7618 7.48849C10.9117 7.62769 11.1372 7.40316 10.9867 7.26348Z" fill="black"/>
<path fill-rule="evenodd" clip-rule="evenodd" d="M22.5299 19.5298C22.6663 19.289 23.0735 19.3281 23.1357 19.609C23.262 20.1785 22.5832 20.7044 22.0676 20.7175C21.5553 20.7305 20.9805 20.2943 21.0546 19.7433C21.073 19.607 21.2549 19.6235 21.317 19.709L21.3411 19.7418C21.5096 19.9682 21.7319 20.2026 22.0446 20.1474C22.1742 20.1246 22.2919 20.0436 22.3703 19.9393C22.4648 19.8134 22.4544 19.6632 22.5299 19.5298ZM19.2724 15.3637C19.3418 15.3445 19.4119 15.3519 19.4734 15.3781C19.6108 15.4033 19.7255 15.5179 19.7658 15.6487C19.769 15.66 19.7726 15.6712 19.7765 15.6823L19.7826 15.6988L19.7662 15.6568C19.7738 15.6981 19.8074 15.7415 19.8194 15.783C19.8343 15.834 19.8379 15.8918 19.8329 15.9479C19.8766 15.9484 19.9203 15.9498 19.9638 15.9536L20.006 15.9574C20.2415 15.9793 20.5001 16.0195 20.6397 16.2231C20.7182 16.3375 20.6445 16.5435 20.5005 16.5655C20.2787 16.5995 20.0876 16.4767 19.8666 16.4521C19.6577 16.4288 19.439 16.4422 19.2328 16.4799C18.807 16.5578 18.4157 16.7304 18.0008 16.8388L17.9443 16.8531L17.9444 16.8529C17.8733 16.87 17.7926 16.7711 17.8629 16.7133C18.1953 16.4401 18.6209 16.2187 19.0402 16.0839C18.9791 15.9867 18.9602 15.8587 19.002 15.7543C19.0084 15.7327 19.0165 15.7117 19.0249 15.6907L19.0426 15.6476C19.0443 15.6272 19.0482 15.6071 19.0538 15.5875L19.0547 15.5814L19.0553 15.5818C19.0865 15.4803 19.168 15.3925 19.2724 15.3637ZM23.5131 15.3793C23.6041 15.2883 23.7318 15.3018 23.8267 15.3734L23.8393 15.3832C23.9287 15.423 24.0027 15.5098 24.0513 15.5903C24.1018 15.6739 24.1353 15.759 24.1366 15.8511C24.3567 15.8518 24.5675 15.9178 24.7291 16.0956C24.7813 16.1529 24.8169 16.2414 24.7882 16.3192L24.7711 16.3655C24.7168 16.5124 24.4729 16.5969 24.39 16.4242L24.3862 16.4157C24.2981 16.2106 23.9599 16.2321 23.7802 16.2531C23.655 16.2678 23.5312 16.2989 23.4103 16.3338C23.3676 16.3461 23.3254 16.3595 23.2832 16.3731L23.241 16.3868C23.2185 16.3941 23.1013 16.4578 23.1742 16.4427C23.1938 16.4386 23.2086 16.4672 23.1886 16.4768C23.1016 16.5183 23.0089 16.4356 23.0147 16.3421C23.0248 16.18 23.2821 16.0911 23.406 16.0352L23.4134 16.0318C23.4609 16.0098 23.5106 15.9888 23.562 15.9693C23.5331 15.9263 23.5093 15.8785 23.4894 15.8273C23.4706 15.7789 23.4581 15.7319 23.4512 15.6805C23.4445 15.6553 23.4445 15.6302 23.4512 15.605L23.4523 15.5978C23.4488 15.5812 23.4471 15.564 23.4473 15.5467L23.4466 15.54H23.4473C23.4498 15.4794 23.4738 15.4187 23.5131 15.3793ZM22.0605 17.1062C22.4098 17.2142 22.986 17.5083 22.804 17.9623C22.5499 18.3792 21.8758 18.0728 21.5492 17.9381C21.2558 17.8409 21.103 18.2523 21.3867 18.3763C23.7314 19.3043 23.7228 16.8552 22.1456 16.8912C21.9719 16.8951 21.9664 17.0704 22.0605 17.1062ZM18.9586 13.9129L19.0181 13.8955C19.3277 13.8058 19.6438 13.6508 19.9186 13.8926C20.0266 13.9875 20.0488 14.1847 19.9716 14.3031C19.7956 14.5729 19.5347 14.5317 19.2506 14.5547C19.0342 14.5722 18.8211 14.6358 18.6192 14.7152C18.4541 14.7802 18.3011 14.8716 18.1566 14.9736C18.0146 15.0739 17.9176 15.2307 17.772 15.321C17.7186 15.3541 17.657 15.32 17.6378 15.2664C17.5699 15.076 17.6846 14.8389 17.7817 14.6767C17.9003 14.4788 18.0804 14.3169 18.274 14.1945C18.486 14.0604 18.7205 13.9829 18.9586 13.9129ZM23.4699 13.708C23.9932 13.7078 24.4967 13.999 24.7894 14.4259C24.8889 14.5709 24.816 14.7857 24.6732 14.8692C24.5131 14.9629 24.3418 14.8954 24.2363 14.7611L24.23 14.753C24.0621 14.5294 23.8458 14.3533 23.5893 14.2386C23.4641 14.1826 23.3257 14.1372 23.1903 14.1142L23.1466 14.1067C23.0853 14.0964 23.0141 14.0866 22.9587 14.0962C22.929 14.1001 22.9017 14.1099 22.8766 14.1249C22.8887 14.1513 22.8574 14.1831 22.8286 14.1673C22.6986 14.0959 22.7145 13.9684 22.8219 13.8693C22.9739 13.7292 23.2736 13.708 23.4699 13.708Z" fill="black"/>
</g>
</svg>
